<?xml version="1.0" encoding="UTF-8"?>
<svg xmlns="http://www.w3.org/2000/svg" xmlns:xlink="http://www.w3.org/1999/xlink" width="156px" height="27px" viewBox="0 0 155 27" version="1.1">
<g id="surface1">
<path style=" stroke:none;fill-rule:nonzero;fill:rgb(100%,100%,100%);fill-opacity:1;" d="M 10.90625 6.222656 C 13.484375 6.222656 15.382812 6.75 16.597656 7.796875 C 17.832031 8.84375 18.449219 10.21875 18.449219 11.914062 C 18.449219 12.484375 18.371094 13.125 18.222656 13.828125 C 17.859375 15.390625 17.1875 16.765625 16.199219 17.945312 C 15.214844 19.109375 14 20.011719 12.554688 20.660156 C 11.132812 21.289062 9.585938 21.605469 7.914062 21.605469 C 5.277344 21.605469 3.320312 21.082031 2.050781 20.03125 C 0.796875 18.964844 0.171875 17.554688 0.171875 15.800781 C 0.171875 15.210938 0.246094 14.554688 0.398438 13.828125 C 0.761719 12.34375 1.441406 11.027344 2.449219 9.882812 C 3.472656 8.722656 4.71875 7.824219 6.179688 7.195312 C 7.660156 6.546875 9.234375 6.222656 10.90625 6.222656 Z M 10.820312 8.769531 C 10.421875 8.769531 9.992188 9.128906 9.539062 9.855469 C 9.101562 10.558594 8.578125 11.902344 7.972656 13.886719 C 7.363281 15.867188 7.0625 17.257812 7.0625 18.058594 C 7.0625 18.480469 7.128906 18.765625 7.261719 18.917969 C 7.394531 19.050781 7.574219 19.117188 7.800781 19.117188 C 8.199219 19.15625 8.609375 18.8125 9.027344 18.089844 C 9.460938 17.363281 10.003906 15.953125 10.648438 13.855469 C 11.238281 12.007812 11.53125 10.664062 11.53125 9.828125 C 11.53125 9.425781 11.464844 9.148438 11.332031 8.996094 C 11.21875 8.84375 11.046875 8.769531 10.820312 8.769531 Z M 10.820312 8.769531 "/>
<path style=" stroke:none;fill-rule:nonzero;fill:rgb(100%,100%,100%);fill-opacity:1;" d="M 35.464844 17.402344 C 35.425781 17.476562 35.410156 17.59375 35.410156 17.746094 C 35.410156 17.878906 35.4375 17.984375 35.492188 18.058594 C 35.570312 18.136719 35.664062 18.175781 35.777344 18.175781 C 36.007812 18.175781 36.195312 18.078125 36.347656 17.886719 C 36.519531 17.679688 36.632812 17.574219 36.691406 17.574219 C 36.785156 17.574219 36.859375 17.640625 36.917969 17.773438 C 36.972656 17.886719 37.003906 18.03125 37.003906 18.203125 C 37.023438 18.753906 36.839844 19.296875 36.460938 19.832031 C 36.082031 20.347656 35.523438 20.777344 34.78125 21.117188 C 34.0625 21.441406 33.1875 21.605469 32.164062 21.605469 C 30.910156 21.605469 29.914062 21.320312 29.175781 20.746094 C 28.433594 20.15625 28.054688 19.375 28.035156 18.402344 C 28.035156 17.699219 28.207031 16.90625 28.546875 16.03125 L 30.113281 11.914062 C 30.207031 11.664062 30.253906 11.464844 30.253906 11.3125 C 30.253906 11.066406 30.171875 10.875 30 10.742188 C 29.847656 10.589844 29.65625 10.511719 29.429688 10.511719 C 29.070312 10.511719 28.699219 10.683594 28.320312 11.027344 C 27.960938 11.351562 27.664062 11.882812 27.4375 12.628906 L 27.4375 12.570312 L 25.644531 18.375 C 25.585938 18.601562 25.558594 18.804688 25.558594 18.976562 C 25.558594 19.222656 25.605469 19.421875 25.699219 19.574219 C 25.796875 19.707031 25.929688 19.839844 26.097656 19.976562 C 26.230469 20.109375 26.328125 20.222656 26.382812 20.316406 C 26.441406 20.394531 26.449219 20.5 26.414062 20.632812 C 26.316406 20.878906 26.128906 21.0625 25.84375 21.175781 C 25.558594 21.289062 25.121094 21.347656 24.535156 21.347656 L 18.042969 21.347656 C 17.550781 21.347656 17.1875 21.269531 16.960938 21.117188 C 16.734375 20.945312 16.65625 20.726562 16.734375 20.460938 C 16.808594 20.234375 17.007812 20.03125 17.332031 19.859375 C 17.617188 19.707031 17.851562 19.527344 18.042969 19.316406 C 18.230469 19.109375 18.394531 18.773438 18.527344 18.316406 L 22.855469 4.050781 C 22.910156 3.878906 22.9375 3.738281 22.9375 3.621094 C 22.9375 3.414062 22.882812 3.242188 22.769531 3.109375 C 22.671875 2.976562 22.539062 2.839844 22.371094 2.707031 C 22.179688 2.554688 22.039062 2.421875 21.941406 2.308594 C 21.867188 2.191406 21.855469 2.039062 21.914062 1.851562 C 22.027344 1.410156 22.625 1.03125 23.707031 0.707031 C 24.789062 0.382812 25.917969 0.222656 27.09375 0.222656 C 28.195312 0.222656 29.003906 0.429688 29.515625 0.851562 C 30.046875 1.269531 30.3125 1.839844 30.3125 2.566406 C 30.3125 2.984375 30.246094 3.394531 30.113281 3.792969 L 28.574219 8.824219 C 29.316406 7.855469 30.09375 7.175781 30.910156 6.796875 C 31.746094 6.414062 32.648438 6.222656 33.613281 6.222656 C 34.773438 6.222656 35.703125 6.578125 36.40625 7.28125 C 37.125 7.988281 37.488281 8.902344 37.488281 10.027344 C 37.488281 10.617188 37.390625 11.199219 37.203125 11.769531 Z M 35.464844 17.402344 "/>
<path style=" stroke:none;fill-rule:nonzero;fill:rgb(100%,100%,100%);fill-opacity:1;" d="M 65.300781 17.402344 C 65.261719 17.476562 65.242188 17.59375 65.242188 17.746094 C 65.242188 17.878906 65.273438 17.984375 65.328125 18.058594 C 65.40625 18.136719 65.5 18.175781 65.613281 18.175781 C 65.839844 18.175781 66.03125 18.078125 66.183594 17.886719 C 66.355469 17.679688 66.46875 17.574219 66.523438 17.574219 C 66.621094 17.574219 66.695312 17.640625 66.753906 17.773438 C 66.808594 17.886719 66.835938 18.03125 66.835938 18.203125 C 66.855469 18.753906 66.675781 19.296875 66.296875 19.832031 C 65.917969 20.347656 65.355469 20.777344 64.617188 21.117188 C 63.894531 21.441406 63.023438 21.605469 61.996094 21.605469 C 60.746094 21.605469 59.75 21.320312 59.007812 20.746094 C 58.269531 20.15625 57.890625 19.375 57.871094 18.402344 C 57.871094 17.699219 58.039062 16.90625 58.382812 16.03125 L 59.949219 11.914062 C 60.042969 11.664062 60.089844 11.464844 60.089844 11.3125 C 60.089844 11.066406 60.003906 10.875 59.835938 10.742188 C 59.683594 10.589844 59.492188 10.511719 59.265625 10.511719 C 58.941406 10.511719 58.609375 10.65625 58.269531 10.941406 C 57.925781 11.226562 57.625 11.675781 57.355469 12.285156 L 55.792969 17.402344 C 55.753906 17.476562 55.734375 17.59375 55.734375 17.746094 C 55.734375 17.878906 55.761719 17.984375 55.820312 18.058594 C 55.894531 18.136719 55.992188 18.175781 56.105469 18.175781 C 56.332031 18.175781 56.523438 18.078125 56.675781 17.886719 C 56.84375 17.679688 56.957031 17.574219 57.015625 17.574219 C 57.109375 17.574219 57.1875 17.640625 57.242188 17.773438 C 57.300781 17.886719 57.328125 18.03125 57.328125 18.203125 C 57.347656 18.753906 57.167969 19.296875 56.789062 19.832031 C 56.410156 20.347656 55.847656 20.777344 55.109375 21.117188 C 54.386719 21.441406 53.515625 21.605469 52.488281 21.605469 C 51.238281 21.605469 50.238281 21.320312 49.5 20.746094 C 48.757812 20.15625 48.378906 19.375 48.359375 18.402344 C 48.359375 17.699219 48.53125 16.90625 48.875 16.03125 L 50.4375 11.914062 C 50.535156 11.664062 50.582031 11.464844 50.582031 11.3125 C 50.582031 11.066406 50.496094 10.875 50.324219 10.742188 C 50.171875 10.589844 49.984375 10.511719 49.757812 10.511719 C 49.433594 10.511719 49.101562 10.65625 48.757812 10.941406 C 48.417969 11.207031 48.132812 11.648438 47.90625 12.257812 L 46.027344 18.375 C 45.949219 18.582031 45.914062 18.785156 45.914062 18.976562 C 45.914062 19.203125 45.960938 19.394531 46.054688 19.546875 C 46.148438 19.679688 46.28125 19.824219 46.453125 19.976562 C 46.585938 20.089844 46.679688 20.195312 46.738281 20.289062 C 46.796875 20.386719 46.804688 20.5 46.765625 20.632812 C 46.691406 20.878906 46.511719 21.0625 46.226562 21.175781 C 45.941406 21.289062 45.496094 21.347656 44.886719 21.347656 L 38.398438 21.347656 C 37.902344 21.347656 37.550781 21.269531 37.34375 21.117188 C 37.117188 20.945312 37.03125 20.726562 37.085938 20.460938 C 37.164062 20.234375 37.363281 20.03125 37.683594 19.859375 C 37.96875 19.707031 38.207031 19.527344 38.398438 19.316406 C 38.585938 19.109375 38.746094 18.773438 38.878906 18.316406 L 41.414062 10.054688 C 41.453125 9.960938 41.472656 9.828125 41.472656 9.65625 C 41.472656 9.445312 41.425781 9.285156 41.328125 9.167969 C 41.253906 9.054688 41.121094 8.910156 40.929688 8.738281 C 40.742188 8.585938 40.609375 8.453125 40.53125 8.339844 C 40.457031 8.226562 40.445312 8.074219 40.503906 7.882812 C 40.617188 7.445312 41.214844 7.0625 42.296875 6.738281 C 43.378906 6.394531 44.507812 6.222656 45.683594 6.222656 C 46.613281 6.222656 47.34375 6.480469 47.878906 6.996094 C 48.425781 7.511719 48.691406 8.214844 48.675781 9.113281 C 49.453125 8.023438 50.269531 7.273438 51.121094 6.851562 C 51.996094 6.433594 52.933594 6.222656 53.941406 6.222656 C 55.042969 6.222656 55.933594 6.546875 56.617188 7.195312 C 57.320312 7.824219 57.707031 8.652344 57.785156 9.683594 C 58.601562 8.386719 59.472656 7.492188 60.402344 6.996094 C 61.332031 6.480469 62.347656 6.222656 63.449219 6.222656 C 64.609375 6.222656 65.539062 6.578125 66.238281 7.28125 C 66.960938 7.988281 67.320312 8.902344 67.320312 10.027344 C 67.320312 10.617188 67.226562 11.199219 67.035156 11.769531 Z M 65.300781 17.402344 "/>
<path style=" stroke:none;fill-rule:nonzero;fill:rgb(100%,100%,100%);fill-opacity:1;" d="M 82.867188 6.222656 C 83.703125 6.222656 84.367188 6.566406 84.863281 7.253906 C 85.375 7.921875 85.628906 8.835938 85.628906 9.996094 C 85.628906 11.007812 85.449219 12.09375 85.089844 13.257812 C 84.386719 15.601562 83.257812 17.8125 81.703125 19.890625 C 80.164062 21.96875 78.390625 23.632812 76.378906 24.890625 C 74.382812 26.148438 72.390625 26.777344 70.398438 26.777344 C 69.410156 26.777344 68.558594 26.609375 67.835938 26.265625 C 67.132812 25.921875 66.601562 25.464844 66.242188 24.890625 C 65.863281 24.320312 65.671875 23.710938 65.671875 23.0625 C 65.671875 22.777344 65.71875 22.460938 65.816406 22.121094 C 65.984375 21.585938 66.269531 21.175781 66.667969 20.890625 C 67.066406 20.605469 67.542969 20.460938 68.09375 20.460938 C 68.964844 20.460938 69.675781 20.757812 70.226562 21.347656 C 70.796875 21.957031 71.15625 22.785156 71.308594 23.835938 C 72.523438 23.777344 73.644531 23.253906 74.667969 22.261719 C 73.703125 22.089844 72.980469 21.765625 72.503906 21.289062 C 72.050781 20.792969 71.738281 20.03125 71.566406 19.003906 L 70.425781 12 C 70.371094 11.636719 70.285156 11.390625 70.171875 11.253906 C 70.074219 11.101562 69.941406 11.027344 69.773438 11.027344 C 69.640625 11.027344 69.476562 11.09375 69.289062 11.226562 C 69.117188 11.359375 68.996094 11.425781 68.917969 11.425781 C 68.765625 11.425781 68.691406 11.265625 68.691406 10.941406 C 68.691406 10.675781 68.738281 10.386719 68.832031 10.082031 C 69.175781 8.996094 69.808594 8.082031 70.742188 7.339844 C 71.671875 6.578125 72.753906 6.195312 73.984375 6.195312 C 75.199219 6.195312 76.09375 6.558594 76.660156 7.28125 C 77.25 8.007812 77.628906 9.121094 77.800781 10.625 L 78.65625 16.917969 C 78.710938 17.394531 78.882812 17.632812 79.167969 17.632812 C 79.507812 17.632812 79.90625 17.324219 80.363281 16.714844 C 80.820312 16.085938 81.265625 15.199219 81.703125 14.058594 C 81.132812 13.542969 80.695312 12.953125 80.390625 12.285156 C 80.089844 11.617188 79.9375 10.902344 79.9375 10.140625 C 79.9375 9.550781 80.011719 9.015625 80.164062 8.539062 C 80.390625 7.777344 80.742188 7.207031 81.21875 6.824219 C 81.710938 6.425781 82.261719 6.222656 82.867188 6.222656 Z M 82.867188 6.222656 "/>
<path style=" stroke:none;fill-rule:nonzero;fill:rgb(100%,100%,100%);fill-opacity:1;" d="M 97.050781 0.222656 C 99.082031 0.222656 100.597656 0.535156 101.605469 1.164062 C 102.628906 1.773438 103.140625 2.527344 103.140625 3.421875 C 103.140625 4.148438 102.839844 4.710938 102.230469 5.109375 C 101.644531 5.492188 100.863281 5.679688 99.898438 5.679688 C 99.003906 5.679688 98.3125 5.460938 97.816406 5.023438 C 97.324219 4.585938 97.078125 4.042969 97.078125 3.394531 C 97.078125 2.992188 97.203125 2.574219 97.449219 2.136719 C 96.878906 2.136719 96.402344 2.277344 96.023438 2.566406 C 95.644531 2.832031 95.351562 3.296875 95.140625 3.964844 C 95.027344 4.386719 94.972656 4.777344 94.972656 5.136719 C 94.972656 5.59375 95.046875 5.957031 95.199219 6.222656 C 95.371094 6.472656 95.605469 6.597656 95.910156 6.597656 L 97.589844 6.597656 C 98.578125 6.597656 99.070312 6.902344 99.070312 7.511719 C 99.070312 7.585938 99.050781 7.703125 99.015625 7.855469 C 98.898438 8.273438 98.664062 8.585938 98.300781 8.796875 C 97.960938 9.007812 97.4375 9.113281 96.738281 9.113281 L 95.882812 9.113281 L 93.0625 18.375 C 93.007812 18.601562 92.976562 18.804688 92.976562 18.976562 C 92.976562 19.222656 93.027344 19.421875 93.121094 19.574219 C 93.214844 19.707031 93.347656 19.839844 93.519531 19.976562 C 93.652344 20.109375 93.746094 20.222656 93.804688 20.316406 C 93.859375 20.394531 93.871094 20.5 93.832031 20.632812 C 93.738281 20.878906 93.546875 21.0625 93.261719 21.175781 C 92.976562 21.289062 92.542969 21.347656 91.953125 21.347656 L 85.460938 21.347656 C 84.96875 21.347656 84.609375 21.269531 84.378906 21.117188 C 84.152344 20.945312 84.078125 20.726562 84.152344 20.460938 C 84.230469 20.234375 84.429688 20.03125 84.75 19.859375 C 85.035156 19.707031 85.273438 19.527344 85.460938 19.316406 C 85.652344 19.109375 85.8125 18.773438 85.945312 18.316406 L 88.167969 11 C 88.261719 10.710938 88.308594 10.417969 88.308594 10.113281 C 88.308594 9.730469 88.222656 9.4375 88.054688 9.226562 C 87.902344 8.996094 87.664062 8.75 87.339844 8.484375 C 87.132812 8.3125 86.972656 8.167969 86.859375 8.054688 C 86.761719 7.921875 86.714844 7.769531 86.714844 7.597656 C 86.695312 7.234375 86.820312 6.976562 87.085938 6.824219 C 87.371094 6.671875 87.902344 6.597656 88.679688 6.597656 L 89.390625 6.597656 C 89.257812 6.121094 89.191406 5.644531 89.191406 5.167969 C 89.191406 4.691406 89.277344 4.195312 89.449219 3.679688 C 89.808594 2.707031 90.578125 1.886719 91.753906 1.222656 C 92.949219 0.554688 94.714844 0.222656 97.050781 0.222656 Z M 97.050781 0.222656 "/>
<path style=" stroke:none;fill-rule:nonzero;fill:rgb(100%,100%,100%);fill-opacity:1;" d="M 108.296875 6.222656 C 110.875 6.222656 112.773438 6.75 113.988281 7.796875 C 115.222656 8.84375 115.839844 10.21875 115.839844 11.914062 C 115.839844 12.484375 115.761719 13.125 115.613281 13.828125 C 115.25 15.390625 114.578125 16.765625 113.589844 17.945312 C 112.601562 19.109375 111.386719 20.011719 109.945312 20.660156 C 108.523438 21.289062 106.976562 21.605469 105.304688 21.605469 C 102.667969 21.605469 100.710938 21.082031 99.441406 20.03125 C 98.1875 18.964844 97.5625 17.554688 97.5625 15.800781 C 97.5625 15.210938 97.636719 14.554688 97.789062 13.828125 C 98.152344 12.34375 98.832031 11.027344 99.839844 9.882812 C 100.863281 8.722656 102.109375 7.824219 103.570312 7.195312 C 105.050781 6.546875 106.625 6.222656 108.296875 6.222656 Z M 108.210938 8.769531 C 107.8125 8.769531 107.382812 9.128906 106.929688 9.855469 C 106.492188 10.558594 105.96875 11.902344 105.363281 13.886719 C 104.753906 15.867188 104.453125 17.257812 104.453125 18.058594 C 104.453125 18.480469 104.519531 18.765625 104.652344 18.917969 C 104.785156 19.050781 104.964844 19.117188 105.191406 19.117188 C 105.589844 19.15625 106 18.8125 106.414062 18.089844 C 106.851562 17.363281 107.394531 15.953125 108.039062 13.855469 C 108.628906 12.007812 108.921875 10.664062 108.921875 9.828125 C 108.921875 9.425781 108.855469 9.148438 108.722656 8.996094 C 108.609375 8.84375 108.4375 8.769531 108.210938 8.769531 Z M 108.210938 8.769531 "/>
<path style=" stroke:none;fill-rule:nonzero;fill:rgb(100%,100%,100%);fill-opacity:1;" d="M 126.976562 6.222656 C 129.558594 6.222656 131.457031 6.75 132.671875 7.796875 C 133.90625 8.84375 134.523438 10.21875 134.523438 11.914062 C 134.523438 12.484375 134.445312 13.125 134.292969 13.828125 C 133.933594 15.390625 133.261719 16.765625 132.273438 17.945312 C 131.285156 19.109375 130.070312 20.011719 128.628906 20.660156 C 127.207031 21.289062 125.660156 21.605469 123.988281 21.605469 C 121.351562 21.605469 119.394531 21.082031 118.125 20.03125 C 116.871094 18.964844 116.246094 17.554688 116.246094 15.800781 C 116.246094 15.210938 116.320312 14.554688 116.472656 13.828125 C 116.832031 12.34375 117.515625 11.027344 118.523438 9.882812 C 119.546875 8.722656 120.789062 7.824219 122.253906 7.195312 C 123.734375 6.546875 125.308594 6.222656 126.976562 6.222656 Z M 126.890625 8.769531 C 126.492188 8.769531 126.066406 9.128906 125.613281 9.855469 C 125.175781 10.558594 124.652344 11.902344 124.046875 13.886719 C 123.4375 15.867188 123.132812 17.257812 123.132812 18.058594 C 123.132812 18.480469 123.199219 18.765625 123.332031 18.917969 C 123.464844 19.050781 123.648438 19.117188 123.875 19.117188 C 124.273438 19.15625 124.679688 18.8125 125.097656 18.089844 C 125.535156 17.363281 126.078125 15.953125 126.722656 13.855469 C 127.308594 12.007812 127.605469 10.664062 127.605469 9.828125 C 127.605469 9.425781 127.539062 9.148438 127.40625 8.996094 C 127.292969 8.84375 127.121094 8.769531 126.890625 8.769531 Z M 126.890625 8.769531 "/>
<path style=" stroke:none;fill-rule:nonzero;fill:rgb(100%,100%,100%);fill-opacity:1;" d="M 150.558594 17.230469 C 150.519531 17.382812 150.5 17.488281 150.5 17.546875 C 150.5 17.679688 150.539062 17.785156 150.613281 17.859375 C 150.691406 17.9375 150.785156 17.972656 150.898438 17.972656 C 151.128906 17.972656 151.316406 17.878906 151.46875 17.6875 C 151.640625 17.476562 151.753906 17.375 151.808594 17.375 C 151.90625 17.375 151.980469 17.441406 152.039062 17.574219 C 152.09375 17.707031 152.125 17.859375 152.125 18.03125 C 152.140625 18.546875 151.941406 19.070312 151.527344 19.605469 C 151.128906 20.136719 150.585938 20.574219 149.902344 20.917969 C 149.21875 21.261719 148.480469 21.433594 147.683594 21.433594 C 146.734375 21.433594 145.90625 21.253906 145.207031 20.890625 C 144.503906 20.527344 144.019531 20.050781 143.753906 19.460938 C 143.242188 20.128906 142.652344 20.625 141.988281 20.945312 C 141.324219 21.269531 140.621094 21.433594 139.882812 21.433594 C 139.007812 21.433594 138.191406 21.214844 137.433594 20.777344 C 136.691406 20.335938 136.09375 19.71875 135.640625 18.917969 C 135.203125 18.097656 134.984375 17.171875 134.984375 16.144531 C 134.984375 14.410156 135.308594 12.78125 135.953125 11.253906 C 136.617188 9.710938 137.539062 8.472656 138.714844 7.539062 C 139.890625 6.585938 141.230469 6.109375 142.730469 6.109375 C 143.542969 6.109375 144.238281 6.207031 144.808594 6.394531 C 145.394531 6.585938 145.925781 6.871094 146.402344 7.253906 L 147.371094 4.050781 C 147.425781 3.878906 147.453125 3.738281 147.453125 3.621094 C 147.453125 3.414062 147.398438 3.242188 147.285156 3.109375 C 147.1875 2.976562 147.054688 2.839844 146.886719 2.707031 C 146.695312 2.554688 146.554688 2.421875 146.457031 2.308594 C 146.382812 2.191406 146.371094 2.039062 146.429688 1.851562 C 146.542969 1.410156 147.140625 1.03125 148.222656 0.707031 C 149.304688 0.382812 150.433594 0.222656 151.609375 0.222656 C 152.710938 0.222656 153.519531 0.429688 154.03125 0.851562 C 154.5625 1.269531 154.828125 1.839844 154.828125 2.566406 C 154.828125 2.984375 154.761719 3.394531 154.628906 3.792969 Z M 145.804688 9.199219 C 145.5 8.929688 145.167969 8.796875 144.808594 8.796875 C 144.257812 8.796875 143.714844 9.207031 143.183594 10.027344 C 142.652344 10.847656 142.226562 11.835938 141.902344 13 C 141.582031 14.164062 141.429688 15.210938 141.449219 16.144531 C 141.449219 17.191406 141.789062 17.714844 142.472656 17.714844 C 142.71875 17.714844 142.929688 17.621094 143.097656 17.429688 C 143.269531 17.222656 143.429688 16.886719 143.582031 16.429688 Z M 145.804688 9.199219 "/>
</g>
</svg>
